<mxfile host="Electron" agent="Mozilla/5.0 (X11; Linux x86_64) AppleWebKit/537.36 (KHTML, like Gecko) draw.io/28.1.2 Chrome/138.0.7204.251 Electron/37.5.1 Safari/537.36" version="28.1.2">
  <diagram name="Page-1" id="oDRKDGXMErZBGxe3PT9X">
    <mxGraphModel dx="767" dy="431" grid="1" gridSize="10" guides="1" tooltips="1" connect="1" arrows="1" fold="1" page="1" pageScale="1" pageWidth="850" pageHeight="1100" math="0" shadow="0">
      <root>
        <mxCell id="0" />
        <mxCell id="1" parent="0" />
        <mxCell id="HMRfwFm09ygfhmrrRZU_-34" value="Írjuk ki a számokat 1-10-ig a páros számokat" style="text;html=1;align=center;verticalAlign=middle;resizable=0;points=[];autosize=1;strokeColor=none;fillColor=none;" vertex="1" parent="1">
          <mxGeometry x="130" y="40" width="260" height="30" as="geometry" />
        </mxCell>
        <mxCell id="HMRfwFm09ygfhmrrRZU_-59" style="edgeStyle=orthogonalEdgeStyle;rounded=0;orthogonalLoop=1;jettySize=auto;html=1;entryX=0.5;entryY=0;entryDx=0;entryDy=0;" edge="1" parent="1" source="HMRfwFm09ygfhmrrRZU_-36" target="HMRfwFm09ygfhmrrRZU_-58">
          <mxGeometry relative="1" as="geometry" />
        </mxCell>
        <mxCell id="HMRfwFm09ygfhmrrRZU_-36" value="START" style="ellipse;whiteSpace=wrap;html=1;" vertex="1" parent="1">
          <mxGeometry x="30" y="70" width="80" height="40" as="geometry" />
        </mxCell>
        <mxCell id="HMRfwFm09ygfhmrrRZU_-37" value="STOP" style="ellipse;whiteSpace=wrap;html=1;" vertex="1" parent="1">
          <mxGeometry x="30" y="270" width="80" height="40" as="geometry" />
        </mxCell>
        <mxCell id="HMRfwFm09ygfhmrrRZU_-39" value="KI: I" style="shape=parallelogram;perimeter=parallelogramPerimeter;whiteSpace=wrap;html=1;fixedSize=1;" vertex="1" parent="1">
          <mxGeometry x="320" y="240" width="120" height="30" as="geometry" />
        </mxCell>
        <mxCell id="HMRfwFm09ygfhmrrRZU_-65" style="edgeStyle=orthogonalEdgeStyle;rounded=0;orthogonalLoop=1;jettySize=auto;html=1;entryX=0.5;entryY=0;entryDx=0;entryDy=0;" edge="1" parent="1" source="HMRfwFm09ygfhmrrRZU_-41" target="HMRfwFm09ygfhmrrRZU_-46">
          <mxGeometry relative="1" as="geometry">
            <Array as="points">
              <mxPoint x="160" y="213" />
              <mxPoint x="160" y="80" />
              <mxPoint x="230" y="80" />
            </Array>
          </mxGeometry>
        </mxCell>
        <mxCell id="HMRfwFm09ygfhmrrRZU_-41" value="I:=1" style="rounded=0;whiteSpace=wrap;html=1;" vertex="1" parent="1">
          <mxGeometry x="10" y="200" width="120" height="25" as="geometry" />
        </mxCell>
        <mxCell id="HMRfwFm09ygfhmrrRZU_-67" style="edgeStyle=orthogonalEdgeStyle;rounded=0;orthogonalLoop=1;jettySize=auto;html=1;entryX=0.5;entryY=0;entryDx=0;entryDy=0;" edge="1" parent="1" source="HMRfwFm09ygfhmrrRZU_-46" target="HMRfwFm09ygfhmrrRZU_-66">
          <mxGeometry relative="1" as="geometry" />
        </mxCell>
        <mxCell id="HMRfwFm09ygfhmrrRZU_-68" value="IGAZ" style="edgeLabel;html=1;align=center;verticalAlign=middle;resizable=0;points=[];" vertex="1" connectable="0" parent="HMRfwFm09ygfhmrrRZU_-67">
          <mxGeometry x="-0.5178" y="1" relative="1" as="geometry">
            <mxPoint as="offset" />
          </mxGeometry>
        </mxCell>
        <mxCell id="HMRfwFm09ygfhmrrRZU_-74" style="edgeStyle=orthogonalEdgeStyle;rounded=0;orthogonalLoop=1;jettySize=auto;html=1;exitX=0;exitY=0.5;exitDx=0;exitDy=0;entryX=0.5;entryY=0;entryDx=0;entryDy=0;" edge="1" parent="1" source="HMRfwFm09ygfhmrrRZU_-46" target="HMRfwFm09ygfhmrrRZU_-37">
          <mxGeometry relative="1" as="geometry">
            <Array as="points">
              <mxPoint x="170" y="142" />
              <mxPoint x="170" y="250" />
              <mxPoint x="70" y="250" />
            </Array>
          </mxGeometry>
        </mxCell>
        <mxCell id="HMRfwFm09ygfhmrrRZU_-46" value="I&amp;lt;n" style="rhombus;whiteSpace=wrap;html=1;" vertex="1" parent="1">
          <mxGeometry x="190" y="102.33" width="80" height="80" as="geometry" />
        </mxCell>
        <mxCell id="HMRfwFm09ygfhmrrRZU_-73" style="edgeStyle=orthogonalEdgeStyle;rounded=0;orthogonalLoop=1;jettySize=auto;html=1;exitX=0.5;exitY=1;exitDx=0;exitDy=0;entryX=0.5;entryY=0;entryDx=0;entryDy=0;" edge="1" parent="1" source="HMRfwFm09ygfhmrrRZU_-48" target="HMRfwFm09ygfhmrrRZU_-46">
          <mxGeometry relative="1" as="geometry">
            <mxPoint x="230" y="80" as="targetPoint" />
            <Array as="points">
              <mxPoint x="320" y="360" />
              <mxPoint x="450" y="360" />
              <mxPoint x="450" y="80" />
              <mxPoint x="230" y="80" />
            </Array>
          </mxGeometry>
        </mxCell>
        <mxCell id="HMRfwFm09ygfhmrrRZU_-48" value="I += 1" style="rounded=0;whiteSpace=wrap;html=1;" vertex="1" parent="1">
          <mxGeometry x="260" y="330" width="120" height="25" as="geometry" />
        </mxCell>
        <mxCell id="HMRfwFm09ygfhmrrRZU_-64" style="edgeStyle=orthogonalEdgeStyle;rounded=0;orthogonalLoop=1;jettySize=auto;html=1;entryX=0.5;entryY=0;entryDx=0;entryDy=0;" edge="1" parent="1" source="HMRfwFm09ygfhmrrRZU_-58" target="HMRfwFm09ygfhmrrRZU_-41">
          <mxGeometry relative="1" as="geometry" />
        </mxCell>
        <mxCell id="HMRfwFm09ygfhmrrRZU_-58" value="n:=10" style="rounded=0;whiteSpace=wrap;html=1;" vertex="1" parent="1">
          <mxGeometry x="10" y="150" width="120" height="25" as="geometry" />
        </mxCell>
        <mxCell id="HMRfwFm09ygfhmrrRZU_-62" value="Téglalap kerülete, területe" style="text;html=1;align=center;verticalAlign=middle;resizable=0;points=[];autosize=1;strokeColor=none;fillColor=none;" vertex="1" parent="1">
          <mxGeometry x="10" y="330" width="160" height="30" as="geometry" />
        </mxCell>
        <mxCell id="HMRfwFm09ygfhmrrRZU_-69" style="edgeStyle=orthogonalEdgeStyle;rounded=0;orthogonalLoop=1;jettySize=auto;html=1;entryX=0.75;entryY=0;entryDx=0;entryDy=0;" edge="1" parent="1" source="HMRfwFm09ygfhmrrRZU_-66" target="HMRfwFm09ygfhmrrRZU_-39">
          <mxGeometry relative="1" as="geometry">
            <mxPoint x="410" y="140" as="targetPoint" />
            <Array as="points">
              <mxPoint x="410" y="210" />
            </Array>
          </mxGeometry>
        </mxCell>
        <mxCell id="HMRfwFm09ygfhmrrRZU_-70" value="IGAZ" style="edgeLabel;html=1;align=center;verticalAlign=middle;resizable=0;points=[];" vertex="1" connectable="0" parent="HMRfwFm09ygfhmrrRZU_-69">
          <mxGeometry x="-0.8476" relative="1" as="geometry">
            <mxPoint x="10" as="offset" />
          </mxGeometry>
        </mxCell>
        <mxCell id="HMRfwFm09ygfhmrrRZU_-66" value="I % 2 == 0" style="rhombus;whiteSpace=wrap;html=1;" vertex="1" parent="1">
          <mxGeometry x="280" y="170" width="80" height="80" as="geometry" />
        </mxCell>
        <mxCell id="HMRfwFm09ygfhmrrRZU_-71" style="edgeStyle=orthogonalEdgeStyle;rounded=0;orthogonalLoop=1;jettySize=auto;html=1;exitX=0;exitY=0.5;exitDx=0;exitDy=0;entryX=0.478;entryY=0.074;entryDx=0;entryDy=0;entryPerimeter=0;" edge="1" parent="1" source="HMRfwFm09ygfhmrrRZU_-66" target="HMRfwFm09ygfhmrrRZU_-48">
          <mxGeometry relative="1" as="geometry" />
        </mxCell>
        <mxCell id="HMRfwFm09ygfhmrrRZU_-72" style="edgeStyle=orthogonalEdgeStyle;rounded=0;orthogonalLoop=1;jettySize=auto;html=1;entryX=0.478;entryY=0.061;entryDx=0;entryDy=0;entryPerimeter=0;" edge="1" parent="1" source="HMRfwFm09ygfhmrrRZU_-39" target="HMRfwFm09ygfhmrrRZU_-48">
          <mxGeometry relative="1" as="geometry">
            <Array as="points">
              <mxPoint x="380" y="290" />
              <mxPoint x="317" y="290" />
            </Array>
          </mxGeometry>
        </mxCell>
        <mxCell id="HMRfwFm09ygfhmrrRZU_-80" style="edgeStyle=orthogonalEdgeStyle;rounded=0;orthogonalLoop=1;jettySize=auto;html=1;entryX=0.5;entryY=0;entryDx=0;entryDy=0;" edge="1" parent="1" source="HMRfwFm09ygfhmrrRZU_-75" target="HMRfwFm09ygfhmrrRZU_-79">
          <mxGeometry relative="1" as="geometry" />
        </mxCell>
        <mxCell id="HMRfwFm09ygfhmrrRZU_-75" value="START" style="ellipse;whiteSpace=wrap;html=1;" vertex="1" parent="1">
          <mxGeometry x="60" y="390" width="80" height="40" as="geometry" />
        </mxCell>
        <mxCell id="HMRfwFm09ygfhmrrRZU_-76" value="STOP" style="ellipse;whiteSpace=wrap;html=1;" vertex="1" parent="1">
          <mxGeometry x="60" y="710" width="80" height="40" as="geometry" />
        </mxCell>
        <mxCell id="HMRfwFm09ygfhmrrRZU_-84" style="edgeStyle=orthogonalEdgeStyle;rounded=0;orthogonalLoop=1;jettySize=auto;html=1;exitX=0.5;exitY=1;exitDx=0;exitDy=0;entryX=0.5;entryY=0;entryDx=0;entryDy=0;" edge="1" parent="1" source="HMRfwFm09ygfhmrrRZU_-77" target="HMRfwFm09ygfhmrrRZU_-82">
          <mxGeometry relative="1" as="geometry" />
        </mxCell>
        <mxCell id="HMRfwFm09ygfhmrrRZU_-77" value="BE: a, b" style="shape=parallelogram;perimeter=parallelogramPerimeter;whiteSpace=wrap;html=1;fixedSize=1;" vertex="1" parent="1">
          <mxGeometry x="40" y="500" width="120" height="30" as="geometry" />
        </mxCell>
        <mxCell id="HMRfwFm09ygfhmrrRZU_-81" style="edgeStyle=orthogonalEdgeStyle;rounded=0;orthogonalLoop=1;jettySize=auto;html=1;entryX=0.5;entryY=0;entryDx=0;entryDy=0;" edge="1" parent="1" source="HMRfwFm09ygfhmrrRZU_-79" target="HMRfwFm09ygfhmrrRZU_-77">
          <mxGeometry relative="1" as="geometry" />
        </mxCell>
        <mxCell id="HMRfwFm09ygfhmrrRZU_-79" value="a, b, t, k" style="rounded=0;whiteSpace=wrap;html=1;" vertex="1" parent="1">
          <mxGeometry x="40" y="450" width="120" height="25" as="geometry" />
        </mxCell>
        <mxCell id="HMRfwFm09ygfhmrrRZU_-85" style="edgeStyle=orthogonalEdgeStyle;rounded=0;orthogonalLoop=1;jettySize=auto;html=1;exitX=0.5;exitY=1;exitDx=0;exitDy=0;entryX=0.5;entryY=0;entryDx=0;entryDy=0;" edge="1" parent="1" source="HMRfwFm09ygfhmrrRZU_-82" target="HMRfwFm09ygfhmrrRZU_-83">
          <mxGeometry relative="1" as="geometry" />
        </mxCell>
        <mxCell id="HMRfwFm09ygfhmrrRZU_-82" value="k = 2*a + 2*b" style="rounded=0;whiteSpace=wrap;html=1;" vertex="1" parent="1">
          <mxGeometry x="40" y="560" width="120" height="25" as="geometry" />
        </mxCell>
        <mxCell id="HMRfwFm09ygfhmrrRZU_-88" style="edgeStyle=orthogonalEdgeStyle;rounded=0;orthogonalLoop=1;jettySize=auto;html=1;entryX=0.5;entryY=0;entryDx=0;entryDy=0;" edge="1" parent="1" source="HMRfwFm09ygfhmrrRZU_-83" target="HMRfwFm09ygfhmrrRZU_-87">
          <mxGeometry relative="1" as="geometry" />
        </mxCell>
        <mxCell id="HMRfwFm09ygfhmrrRZU_-83" value="t = a*b" style="rounded=0;whiteSpace=wrap;html=1;" vertex="1" parent="1">
          <mxGeometry x="40" y="610" width="120" height="25" as="geometry" />
        </mxCell>
        <mxCell id="HMRfwFm09ygfhmrrRZU_-89" style="edgeStyle=orthogonalEdgeStyle;rounded=0;orthogonalLoop=1;jettySize=auto;html=1;entryX=0.5;entryY=0;entryDx=0;entryDy=0;" edge="1" parent="1" source="HMRfwFm09ygfhmrrRZU_-87" target="HMRfwFm09ygfhmrrRZU_-76">
          <mxGeometry relative="1" as="geometry" />
        </mxCell>
        <mxCell id="HMRfwFm09ygfhmrrRZU_-87" value="KI: t, k" style="shape=parallelogram;perimeter=parallelogramPerimeter;whiteSpace=wrap;html=1;fixedSize=1;" vertex="1" parent="1">
          <mxGeometry x="40" y="660" width="120" height="30" as="geometry" />
        </mxCell>
      </root>
    </mxGraphModel>
  </diagram>
</mxfile>
